<?xml version="1.0" standalone="no"?><!DOCTYPE svg PUBLIC "-//W3C//DTD SVG 1.1//EN" "http://www.w3.org/Graphics/SVG/1.1/DTD/svg11.dtd"><svg t="1622633934334" class="icon" viewBox="0 0 1024 1024" version="1.1" xmlns="http://www.w3.org/2000/svg" p-id="35764" xmlns:xlink="http://www.w3.org/1999/xlink" width="200" height="200"><defs><style type="text/css"></style></defs><path d="M649.537829 82.885486c0-12.785371 10.298514-23.1424 22.849828-23.1424h45.787429c12.580571 0 22.820571 10.357029 22.820571 23.1424v47.133257a22.996114 22.996114 0 0 1-22.820571 23.083886h-45.787429a22.996114 22.996114 0 0 1-22.849828-23.083886V82.885486zM466.417371 82.885486c0-12.785371 10.269257-23.1424 22.966858-23.1424h45.758171c12.639086 0 22.849829 10.357029 22.849829 23.1424v47.133257c0 12.756114-10.24 23.083886-22.849829 23.083886h-45.758171a23.025371 23.025371 0 0 1-22.966858-23.083886V82.885486zM283.413943 82.885486c0-12.785371 10.24-23.1424 22.908343-23.1424h45.787428c12.609829 0 22.879086 10.357029 22.879086 23.1424v47.133257a22.996114 22.996114 0 0 1-22.879086 23.083886H306.322286a22.966857 22.966857 0 0 1-22.908343-23.083886V82.885486zM100.7616 407.288686c0-25.6 16.208457-65.184914 68.608-69.485715l114.015086-0.351085V198.802286h91.574857v138.6496h91.662628V198.802286h91.5456v138.6496h91.457829V198.802286h91.487086v138.6496l114.746514 0.351085c25.307429 0 67.262171 32.299886 68.637257 69.485715v96.958171a197.953829 197.953829 0 0 0-53.0432-6.7584c-58.250971 0-90.170514 14.1312-115.185371 30.339657-20.245943 13.1072-33.5872 19.573029-65.1264 19.573029-31.451429 0-44.821943-8.630857-65.097143-21.796572-24.9856-16.149943-56.144457-48.683886-114.424686-48.683885-58.1632 0-89.351314 32.533943-114.307657 48.683885-20.304457 13.165714-33.616457 21.796571-65.1264 21.796572-31.480686 0-44.821943-8.630857-65.009371-21.796572-25.073371-16.149943-56.1152-27.823543-114.395429-27.823542-20.714057 0-38.005029 2.633143-52.750629 6.699885l0.731429-97.192228zM978.183314 964.256914H45.6704c-25.161143 0-45.6704-20.743314-45.6704-46.2848 0-25.6 20.509257-46.343314 45.6704-46.343314h54.447543V595.968c14.423771-8.660114 27.969829-14.072686 52.750628-14.072686 31.480686 0 44.8512 8.777143 65.009372 21.855086 25.044114 16.208457 56.1152 36.278857 114.395428 36.278857 72.9088 0 100.7616-70.334171 179.4048-70.334171 79.403886 0 106.642286 70.334171 179.492572 70.334171 58.250971 0 89.468343-20.099657 114.424686-36.278857 20.2752-13.077943 34.4064-21.855086 65.857828-21.855086 24.868571 0 38.385371 5.500343 53.0432 14.277486v275.456h53.6576c25.307429 0 45.816686 20.743314 45.816686 46.343314 0.029257 25.541486-20.48 46.2848-45.787429 46.2848z" fill="#73b6ff" p-id="35765"></path></svg>