<?xml version="1.0" standalone="no"?><!DOCTYPE svg PUBLIC "-//W3C//DTD SVG 1.1//EN" "http://www.w3.org/Graphics/SVG/1.1/DTD/svg11.dtd"><svg t="1622633584439" class="icon" viewBox="0 0 1024 1024" version="1.1" xmlns="http://www.w3.org/2000/svg" p-id="6834" xmlns:xlink="http://www.w3.org/1999/xlink" width="200" height="200"><defs><style type="text/css"></style></defs><path d="M776.533333 349.866667c0 17.066667-5.688889 31.288889-14.222222 45.511111s-22.755556 25.6-36.977778 36.977778c-73.955556 51.2-122.311111 82.488889-139.377777 96.711111-2.844444 2.844444-8.533333 5.688889-14.222223 8.533333-5.688889 5.688889-11.377778 8.533333-17.066666 11.377778l-14.222223 8.533333-17.066666 8.533333c-2.844444 2.844444-8.533333 2.844444-14.222222 2.844445s-11.377778-2.844444-14.222223-2.844445l-17.066666-8.533333-14.222223-8.533333c-5.688889-2.844444-8.533333-5.688889-17.066666-11.377778-2.844444-2.844444-8.533333-5.688889-14.222222-8.533333-25.6-17.066667-51.2-36.977778-76.8-54.044445-34.133333-22.755556-54.044444-36.977778-62.577778-42.666666-11.377778-11.377778-22.755556-22.755556-31.288889-34.133334-8.533333-11.377778-17.066667-25.6-17.066667-39.822222 0-14.222222 2.844444-28.444444 11.377778-36.977778 8.533333-11.377778 22.755556-17.066667 34.133333-14.222222h435.2c11.377778 0 25.6 5.688889 34.133334 14.222222 14.222222 5.688889 17.066667 17.066667 17.066666 28.444445z m0 88.177777v236.088889c0 11.377778-5.688889 25.6-14.222222 34.133334-8.533333 8.533333-19.911111 14.222222-34.133333 14.222222H295.822222c-11.377778 0-25.6-5.688889-34.133333-14.222222-8.533333-8.533333-14.222222-19.911111-14.222222-34.133334v-236.088889c8.533333 11.377778 19.911111 19.911111 28.444444 25.6 71.111111 48.355556 122.311111 82.488889 147.911111 102.4 8.533333 5.688889 17.066667 14.222222 28.444445 19.911112 8.533333 5.688889 17.066667 11.377778 28.444444 14.222222 19.911111 8.533333 45.511111 8.533333 65.422222 0 8.533333-2.844444 19.911111-8.533333 28.444445-14.222222 11.377778-5.688889 17.066667-14.222222 28.444444-19.911112 34.133333-25.6 82.488889-56.888889 147.911111-102.4l25.6-25.6zM512 0C230.4 0 0 230.4 0 512s230.4 512 512 512 512-230.4 512-512S793.6 0 512 0z m0 987.022222C250.311111 987.022222 36.977778 773.688889 36.977778 512S250.311111 36.977778 512 36.977778 987.022222 250.311111 987.022222 512 773.688889 987.022222 512 987.022222z" fill="#73b6ff" p-id="6835"></path></svg>