<?xml version="1.0" standalone="no"?><!DOCTYPE svg PUBLIC "-//W3C//DTD SVG 1.1//EN" "http://www.w3.org/Graphics/SVG/1.1/DTD/svg11.dtd"><svg t="1622633530823" class="icon" viewBox="0 0 1024 1024" version="1.1" xmlns="http://www.w3.org/2000/svg" p-id="5069" xmlns:xlink="http://www.w3.org/1999/xlink" width="200" height="200"><defs><style type="text/css"></style></defs><path d="M504.775111 114.574222a245.873778 245.873778 0 0 1 245.361778 235.52h26.168889c65.308444 0 118.328889 53.077333 118.385778 118.328889v337.123556c0 65.251556-53.020444 118.328889-118.328889 118.328889H232.732444a118.442667 118.442667 0 0 1-118.328888-118.328889V625.777778H113.777778v-56.888889h0.625778V468.48c0-62.464 48.583111-113.720889 109.909333-118.044444l8.419555-0.284445h26.225778a245.873778 245.873778 0 0 1 245.361778-235.576889zM840.021333 625.777778H169.016889v179.768889c0 32.824889 24.917333 59.904 56.775111 63.374222l6.940444 0.341333h543.630223c35.100444 0 63.715556-28.558222 63.715555-63.715555L840.021333 625.777778z m-63.715555-221.013334H232.789333c-35.100444 0-63.715556 28.558222-63.715555 63.715556V568.888889h671.004444V468.48c0-32.824889-24.860444-59.904-56.775111-63.374222l-6.883555-0.341334zM504.832 169.187556a191.317333 191.317333 0 0 0-191.146667 180.906666h381.895111a191.260444 191.260444 0 0 0-190.748444-180.906666z" p-id="5070" fill="#73b6ff"></path><path d="M390.144 545.109333v215.950223a27.306667 27.306667 0 0 1-54.613333 0V545.109333a27.306667 27.306667 0 0 1 54.613333 0zM674.588444 545.109333v215.950223a27.306667 27.306667 0 0 1-54.613333 0V545.109333a27.306667 27.306667 0 0 1 54.613333 0z" p-id="5071" fill="#73b6ff"></path></svg>