<?xml version="1.0" standalone="no"?><!DOCTYPE svg PUBLIC "-//W3C//DTD SVG 1.1//EN" "http://www.w3.org/Graphics/SVG/1.1/DTD/svg11.dtd"><svg t="1622633698380" class="icon" viewBox="0 0 1024 1024" version="1.1" xmlns="http://www.w3.org/2000/svg" p-id="15370" xmlns:xlink="http://www.w3.org/1999/xlink" width="200" height="200"><defs><style type="text/css"></style></defs><path d="M512 74.706227c241.127714 0 437.292774 196.141074 437.292774 437.293773 0 241.10073-196.16506 437.317759-437.292774 437.317759-241.101729 0-437.268788-196.217029-437.268788-437.317759 0-241.1517 196.167058-437.293773 437.268788-437.293773m0-74.706227C229.223689 0 0 229.249674 0 512.000999c0 282.750326 229.223689 512 512 512 282.751325 0 511.973016-229.249674 511.973016-512C1023.973016 229.249674 794.751325 0 512 0" fill="#73b6ff" p-id="15371"></path><path d="M736.547429 629.240305c-16.504329-13.29521-34.143994-25.197236-51.505821-37.430069-34.674683-24.310755-66.290158-26.18066-92.169994 12.939418-14.5075 21.962132-34.826594 22.948554-56.054155 13.320196-58.582674-26.561437-103.821167-67.504447-130.332634-127.021574-11.701144-26.33457-11.549233-49.938739 15.896686-68.58981 14.481515-9.83024 29.139926-21.456428 27.952621-42.988812-1.517111-28.103533-69.677174-121.915565-96.592403-131.797774-11.119485-4.068616-22.189998-3.815764-33.536349 0-63.081038 21.228561-89.238712 73.089174-64.218372 134.526176C330.668249 565.525637 462.086246 693.153855 642.963264 771.068202c10.310958 4.448394 21.809221 6.193371 27.59683 7.810424 41.143892 0.404763 89.440593-39.273988 103.367433-78.674902 13.392153-37.881804-14.962233-52.893008-37.380098-70.963419M533.70928 259.273082c132.251509 20.320094 193.208792 83.222237 210.0909 216.385212 1.566082 12.333773-3.057209 30.857919 14.55747 31.161741 18.322264 0.378778 13.899856-17.843545 14.077751-30.175319 1.540098-125.453492-107.864798-241.758345-234.885372-246.054827-9.578388 1.390185-29.392778-6.57115-30.655038 14.911263-0.808526 14.429545 15.845715 12.053937 26.814289 13.77193" fill="#73b6ff" p-id="15372"></path><path d="M559.589116 295.791685c-12.738536-1.491126-29.493719-7.505602-32.501956 10.135061-3.058208 18.550131 15.618848 16.629256 27.623814 19.307687 81.73211 18.272294 110.138466 47.992879 123.608573 129.043389 1.971845 11.802085-1.970845 30.175319 18.120383 27.11811 14.860293-2.274667 9.528417-18.019442 10.766691-27.219051 0.656615-77.79042-65.987336-148.604927-147.617505-158.385196" fill="#73b6ff" p-id="15373"></path><path d="M567.094718 359.403412c-8.492024 0.201882-16.832137 1.137334-19.940316 10.185032-4.700246 13.572048 5.181964 16.831138 15.165114 18.424205 33.560336 5.408831 51.151029 25.120281 54.512059 58.556689 0.935452 9.047699 6.67309 16.402389 15.416967 15.365997 12.180863-1.441156 13.267226-12.256818 12.888448-22.517806 0.581659-37.53001-41.827492-80.898598-78.042272-80.014117" fill="#73b6ff" p-id="15374"></path></svg>